<mxfile host="app.diagrams.net" agent="Mozilla/5.0 (Windows NT 10.0; Win64; x64) AppleWebKit/537.36 (KHTML, like Gecko) Chrome/129.0.0.0 Safari/537.36" version="24.7.17">
  <diagram name="Page-1" id="d3O9qlDI7mk8DNdTfgK6">
    <mxGraphModel dx="1115" dy="574" grid="1" gridSize="10" guides="1" tooltips="1" connect="1" arrows="1" fold="1" page="1" pageScale="1" pageWidth="850" pageHeight="1100" math="0" shadow="0">
      <root>
        <mxCell id="0" />
        <mxCell id="1" parent="0" />
        <mxCell id="IIbw6o-c3Xj63f9vm0_1-11" style="edgeStyle=orthogonalEdgeStyle;rounded=0;orthogonalLoop=1;jettySize=auto;html=1;exitX=0;exitY=0.5;exitDx=0;exitDy=0;exitPerimeter=0;entryX=1;entryY=0.75;entryDx=0;entryDy=0;" edge="1" parent="1" source="IIbw6o-c3Xj63f9vm0_1-1" target="IIbw6o-c3Xj63f9vm0_1-4">
          <mxGeometry relative="1" as="geometry" />
        </mxCell>
        <mxCell id="IIbw6o-c3Xj63f9vm0_1-18" value="Feed" style="edgeLabel;html=1;align=center;verticalAlign=middle;resizable=0;points=[];" vertex="1" connectable="0" parent="IIbw6o-c3Xj63f9vm0_1-11">
          <mxGeometry x="-0.462" relative="1" as="geometry">
            <mxPoint as="offset" />
          </mxGeometry>
        </mxCell>
        <mxCell id="IIbw6o-c3Xj63f9vm0_1-1" value="Dataset" style="shape=cylinder3;whiteSpace=wrap;html=1;boundedLbl=1;backgroundOutline=1;size=15;fillColor=#bac8d3;strokeColor=#23445d;" vertex="1" parent="1">
          <mxGeometry x="600" y="280" width="60" height="80" as="geometry" />
        </mxCell>
        <mxCell id="IIbw6o-c3Xj63f9vm0_1-8" style="edgeStyle=orthogonalEdgeStyle;rounded=0;orthogonalLoop=1;jettySize=auto;html=1;exitX=0;exitY=0.75;exitDx=0;exitDy=0;" edge="1" parent="1" source="IIbw6o-c3Xj63f9vm0_1-2">
          <mxGeometry relative="1" as="geometry">
            <mxPoint x="160" y="280" as="targetPoint" />
          </mxGeometry>
        </mxCell>
        <mxCell id="IIbw6o-c3Xj63f9vm0_1-9" style="edgeStyle=orthogonalEdgeStyle;rounded=0;orthogonalLoop=1;jettySize=auto;html=1;exitX=1;exitY=0.25;exitDx=0;exitDy=0;entryX=0;entryY=0.25;entryDx=0;entryDy=0;" edge="1" parent="1" source="IIbw6o-c3Xj63f9vm0_1-2" target="IIbw6o-c3Xj63f9vm0_1-4">
          <mxGeometry relative="1" as="geometry" />
        </mxCell>
        <mxCell id="IIbw6o-c3Xj63f9vm0_1-2" value="UI" style="rounded=0;whiteSpace=wrap;html=1;fillColor=#dae8fc;strokeColor=#6c8ebf;" vertex="1" parent="1">
          <mxGeometry x="270" y="190" width="70" height="120" as="geometry" />
        </mxCell>
        <mxCell id="IIbw6o-c3Xj63f9vm0_1-10" style="edgeStyle=orthogonalEdgeStyle;rounded=0;orthogonalLoop=1;jettySize=auto;html=1;exitX=0;exitY=0.75;exitDx=0;exitDy=0;entryX=1;entryY=0.75;entryDx=0;entryDy=0;" edge="1" parent="1" source="IIbw6o-c3Xj63f9vm0_1-4" target="IIbw6o-c3Xj63f9vm0_1-2">
          <mxGeometry relative="1" as="geometry" />
        </mxCell>
        <mxCell id="IIbw6o-c3Xj63f9vm0_1-4" value="Model" style="rounded=0;whiteSpace=wrap;html=1;fillColor=#d5e8d4;strokeColor=#82b366;" vertex="1" parent="1">
          <mxGeometry x="430" y="190" width="70" height="120" as="geometry" />
        </mxCell>
        <mxCell id="IIbw6o-c3Xj63f9vm0_1-5" value="Hateful" style="shape=cylinder3;whiteSpace=wrap;html=1;boundedLbl=1;backgroundOutline=1;size=15;fillColor=#bac8d3;strokeColor=#23445d;" vertex="1" parent="1">
          <mxGeometry x="600" y="140" width="60" height="80" as="geometry" />
        </mxCell>
        <mxCell id="IIbw6o-c3Xj63f9vm0_1-21" style="edgeStyle=orthogonalEdgeStyle;rounded=0;orthogonalLoop=1;jettySize=auto;html=1;exitX=0.75;exitY=0.1;exitDx=0;exitDy=0;exitPerimeter=0;" edge="1" parent="1" source="IIbw6o-c3Xj63f9vm0_1-6">
          <mxGeometry relative="1" as="geometry">
            <mxPoint x="260" y="216" as="targetPoint" />
          </mxGeometry>
        </mxCell>
        <mxCell id="IIbw6o-c3Xj63f9vm0_1-6" value="User" style="shape=umlActor;verticalLabelPosition=bottom;verticalAlign=top;html=1;outlineConnect=0;" vertex="1" parent="1">
          <mxGeometry x="120" y="210" width="30" height="60" as="geometry" />
        </mxCell>
        <mxCell id="IIbw6o-c3Xj63f9vm0_1-12" style="edgeStyle=orthogonalEdgeStyle;rounded=0;orthogonalLoop=1;jettySize=auto;html=1;exitX=1;exitY=0.25;exitDx=0;exitDy=0;entryX=0;entryY=0;entryDx=0;entryDy=27.5;entryPerimeter=0;" edge="1" parent="1" source="IIbw6o-c3Xj63f9vm0_1-4" target="IIbw6o-c3Xj63f9vm0_1-5">
          <mxGeometry relative="1" as="geometry" />
        </mxCell>
        <mxCell id="IIbw6o-c3Xj63f9vm0_1-19" value="Record" style="edgeLabel;html=1;align=center;verticalAlign=middle;resizable=0;points=[];" vertex="1" connectable="0" parent="IIbw6o-c3Xj63f9vm0_1-12">
          <mxGeometry x="0.4668" relative="1" as="geometry">
            <mxPoint as="offset" />
          </mxGeometry>
        </mxCell>
        <mxCell id="IIbw6o-c3Xj63f9vm0_1-13" value="&lt;b&gt;Statement&lt;/b&gt;" style="text;html=1;align=center;verticalAlign=middle;whiteSpace=wrap;rounded=0;" vertex="1" parent="1">
          <mxGeometry x="170" y="180" width="60" height="30" as="geometry" />
        </mxCell>
        <mxCell id="IIbw6o-c3Xj63f9vm0_1-14" value="&lt;b&gt;Feedback&lt;/b&gt;" style="text;html=1;align=center;verticalAlign=middle;whiteSpace=wrap;rounded=0;" vertex="1" parent="1">
          <mxGeometry x="180" y="280" width="60" height="30" as="geometry" />
        </mxCell>
        <mxCell id="IIbw6o-c3Xj63f9vm0_1-15" value="&lt;b&gt;Request&lt;/b&gt;" style="text;html=1;align=center;verticalAlign=middle;whiteSpace=wrap;rounded=0;" vertex="1" parent="1">
          <mxGeometry x="360" y="190" width="60" height="30" as="geometry" />
        </mxCell>
        <mxCell id="IIbw6o-c3Xj63f9vm0_1-16" value="&lt;b&gt;Response&lt;/b&gt;" style="text;html=1;align=center;verticalAlign=middle;whiteSpace=wrap;rounded=0;" vertex="1" parent="1">
          <mxGeometry x="360" y="280" width="60" height="30" as="geometry" />
        </mxCell>
        <mxCell id="IIbw6o-c3Xj63f9vm0_1-17" value="&lt;b&gt;Process&lt;/b&gt;" style="text;html=1;align=center;verticalAlign=middle;whiteSpace=wrap;rounded=0;" vertex="1" parent="1">
          <mxGeometry x="510" y="235" width="60" height="30" as="geometry" />
        </mxCell>
        <mxCell id="IIbw6o-c3Xj63f9vm0_1-22" value="&lt;b&gt;Flask&lt;/b&gt;" style="text;html=1;align=center;verticalAlign=middle;whiteSpace=wrap;rounded=0;" vertex="1" parent="1">
          <mxGeometry x="275" y="260" width="60" height="30" as="geometry" />
        </mxCell>
        <mxCell id="IIbw6o-c3Xj63f9vm0_1-23" value="&lt;b&gt;Python&lt;/b&gt;" style="text;html=1;align=center;verticalAlign=middle;whiteSpace=wrap;rounded=0;" vertex="1" parent="1">
          <mxGeometry x="435" y="260" width="60" height="30" as="geometry" />
        </mxCell>
      </root>
    </mxGraphModel>
  </diagram>
</mxfile>
